<?xml version="1.0" encoding="UTF-8"?><svg id="Layer_1" xmlns="http://www.w3.org/2000/svg" viewBox="0 0 516.3 187.4"><defs><style>.cls-1{fill:#231f20;}</style></defs><path d="M8.5,56.1l-4.6-4.8c.9-.8,21.6-19.6,56-6.9,29.3,10.8,36.9.5,37,.4l5.6,3.5c-.4.6-9.9,15.3-44.9,2.3-30.4-11.2-48.3,4.8-49.1,5.5Z"/><path d="M10.2,119.6l-4.6-4.8c.8-.8,21.2-19.7,55-6.9,28.7,10.8,36.2.5,36.2.4l5.6,3.5c-.4.6-9.8,15.3-44.2,2.3-29.8-11.2-47.4,4.8-48.1,5.5Z"/><path d="M112.7,88.1c-4,0-8.4-.3-13.2-1.1-5.9-1-12.1-2.8-18.4-5.4-6-2.5-19.6-3.9-31.2.7l-2.4-6.2c12.6-5,28-4.1,36.2-.7,5.8,2.4,11.5,4.1,17,5,26.8,4.5,37.9-6.6,38.4-7l4.8,4.6c-.5.5-9.9,10.1-31.1,10.1Z"/><path d="M72.3,187.4l-1.1-.4c-38.1-15.2-55.9-45.7-63.2-62.4-2.3-5.4-3.6-11.1-3.9-17.1L0,12.8l2.3-.8c73.3-26.9,142.7-.2,143.4,0l2.2.9-3.2,95.6c-.2,6.1-1.5,12-3.9,17.5-20.3,47.2-65.5,60.6-67.4,61.1l-1.1.3ZM6.8,17.4l4,89.8c.2,5.1,1.4,10.1,3.4,14.7,6.8,15.7,23.3,44,58.5,58.5,6.8-2.3,44.7-16.6,62.1-57,2-4.7,3.2-9.8,3.3-15.1l3.1-90.9c-12-4.1-71.4-22.1-134.3,0Z"/><path class="cls-1" d="M197.1,61.2v7.7c0,4.6.4,8,1.1,10.5h-8.2c.7-2.5,1.1-5.9,1.1-10.5v-27.9c0-4.6-.4-8-1.1-10.5h22.3c9.3,0,16.9,6.9,16.9,15.4s-7.6,15.4-16.9,15.4h-15.1ZM212.1,55.6c6,0,10.8-4.4,10.8-9.8s-4.8-9.8-10.8-9.8h-14.8c-.1,1.5-.2,3.1-.2,4.9v14.7h15Z"/><path class="cls-1" d="M269.7,79.3c.7-2.5,1.1-5.9,1.1-10.5v-27.9c0-1.8,0-3.4-.2-4.9h-8.9c-4.6,0-8,.4-10.5,1.1v-6.7h45.2v6.7c-2.5-.7-5.9-1.1-10.5-1.1h-8.9c-.1,1.5-.2,3.1-.2,4.9v27.9c0,4.6.4,8,1.1,10.5h-8.2Z"/><path class="cls-1" d="M344.9,57.3h-15.1v11.6c0,1.8,0,3.4.2,4.9h19.6c4.6,0,8-.4,10.5-1.1v6.7h-37.4c.7-2.5,1.1-5.9,1.1-10.5v-27.9c0-4.6-.4-8-1.1-10.5h37.4v6.7c-2.5-.7-5.9-1.1-10.5-1.1h-19.6c-.1,1.5-.2,3.1-.2,4.9v10.9h15.1c4.5,0,8-.3,10.5-1.1v7.7c-2.5-.8-5.9-1.1-10.5-1.1Z"/><path class="cls-1" d="M435.1,79.3h-8.4c-.3-2.5-1.2-5.9-3.1-10.5l-1-2.6h-25.4l-1.1,2.6c-1.9,4.6-2.8,8-3.1,10.5h-8.4c1.8-2.5,3.4-5.9,5.4-10.5l16.1-38.4h7.9l16.1,38.4c2,4.6,3.6,8,5.4,10.5ZM420.2,60.9l-10.5-25.2-10.5,25.2h20.9Z"/><path class="cls-1" d="M460.9,79.3c.7-2.5,1.1-5.9,1.1-10.5v-27.9c0-4.6-.4-8-1.1-10.5h8.9l18.8,31.2,18.8-31.2h8.9c-.7,2.5-1.1,5.9-1.1,10.5v27.9c0,4.6.4,8,1.1,10.5h-8.2c.7-2.5,1.1-5.9,1.1-10.5v-27.9c0-.8,0-1.7,0-2.4l-18.7,31.1h-3.6l-18.7-31.1c0,.8,0,1.6,0,2.4v27.9c0,4.6.4,8,1.1,10.5h-8.2Z"/><path class="cls-1" d="M192.7,124.7v-17.5h15.1v17.5h-2.5v-16l.6.6h-11.4l.6-.6v16h-2.5Z"/><path class="cls-1" d="M217.7,124.7v-17.5h6.8c1.5,0,2.8.2,3.9.7,1.1.5,1.9,1.2,2.5,2.1.6.9.9,2,.9,3.3s-.3,2.4-.9,3.3c-.6.9-1.4,1.6-2.5,2.1-1.1.5-2.4.7-3.9.7h-5.5l1.1-1.2v6.5h-2.5ZM220.2,118.5l-1.1-1.2h5.4c1.6,0,2.8-.3,3.6-1,.8-.7,1.2-1.6,1.2-2.9s-.4-2.2-1.2-2.9-2-1-3.6-1h-5.4l1.1-1.2v10.4Z"/><path class="cls-1" d="M242.2,122.5h10.2v2.2h-12.7v-17.5h12.4v2.2h-9.9v13.2ZM242,114.7h9v2.1h-9v-2.1Z"/><path class="cls-1" d="M260.8,124.7v-17.5h2.1l7.8,13.2h-1.1l7.8-13.2h2v17.5s-2.4,0-2.4,0v-13.7s.5,0,.5,0l-6.9,11.6h-1.1l-7-11.6h.6v13.7h-2.4Z"/><path class="cls-1" d="M289.3,124.7v-17.5h2.5v13.5l10.3-13.5h2.3v17.5h-2.4v-13.5l-10.4,13.5h-2.3Z"/><path class="cls-1" d="M311.9,124.7l7.9-17.5h2.5l8,17.5h-2.6l-7.1-16.1h1l-7.1,16.1h-2.6ZM315.3,120.3l.7-2h9.9l.7,2h-11.2Z"/><path class="cls-1" d="M336.9,124.9c-.2,0-.5,0-.8,0-.2,0-.5,0-.8-.1l.2-2.2c.3,0,.5.1.8.1.7,0,1.3-.3,1.8-.9.4-.6.8-1.5,1-2.6.2-1.2.3-2.7.4-4.5l.3-7.4h12.3v17.5h-2.5v-16l.6.6h-8.9l.5-.7-.2,5.8c0,1.7-.2,3.3-.4,4.6-.2,1.3-.5,2.4-.8,3.2-.4.9-.8,1.5-1.4,1.9-.6.4-1.3.7-2.2.7Z"/><path class="cls-1" d="M369.6,113.3c2.1,0,3.7.5,4.8,1.4,1.1.9,1.7,2.3,1.7,4.1s-.6,3.4-1.8,4.4c-1.2,1-2.9,1.5-5.1,1.5h-7.2v-17.5h2.5v6.1h5.2ZM369.1,122.7c1.5,0,2.6-.3,3.3-1,.8-.6,1.2-1.6,1.2-2.9s-.4-2.1-1.1-2.7-1.9-.9-3.4-.9h-4.6v7.4h4.6Z"/><path class="cls-1" d="M386.7,124.7h-2.5v-17.5h2.5v17.5ZM397,116.9h-10.5v-2.2h10.5v2.2ZM396.8,107.2h2.5v17.5h-2.5v-17.5Z"/><path class="cls-1" d="M416.8,113.3c2.1,0,3.7.5,4.8,1.4,1.1.9,1.7,2.3,1.7,4.1s-.6,3.4-1.8,4.4c-1.2,1-2.9,1.5-5.1,1.5h-7.2v-17.5h2.5v6.1h5.2ZM416.3,122.7c1.5,0,2.6-.3,3.3-1,.8-.6,1.2-1.6,1.2-2.9s-.4-2.1-1.1-2.7-1.9-.9-3.4-.9h-4.6v7.4h4.6ZM426.1,124.7v-17.5h2.5v17.5h-2.5Z"/><path class="cls-1" d="M440.9,122.5h10.2v2.2h-12.7v-17.5h12.4v2.2h-9.9v13.2ZM440.7,114.7h9v2.1h-9v-2.1Z"/><path class="cls-1" d="M192.7,156.7v-17.5h13.2v2.1h-10.7v5h5.5c2.1,0,3.7.4,4.8,1.3,1.1.9,1.6,2.1,1.6,3.8s-.6,3-1.8,3.9c-1.2.9-2.9,1.4-5,1.4h-7.5ZM195.2,154.7h4.9c1.5,0,2.5-.3,3.3-.8.7-.6,1.1-1.4,1.1-2.4,0-2.1-1.5-3.2-4.4-3.2h-4.9v6.4Z"/><path class="cls-1" d="M213,156.7l7.9-17.5h2.5l8,17.5h-2.6l-7.1-16.1h1l-7.1,16.1h-2.6ZM216.4,152.3l.7-2h9.9l.7,2h-11.2Z"/><path class="cls-1" d="M246.4,156.9c-1.3,0-2.6-.2-3.7-.7-1.1-.4-2.1-1.1-2.9-1.9-.8-.8-1.5-1.8-1.9-2.8s-.7-2.3-.7-3.6.2-2.5.7-3.6c.5-1.1,1.1-2,2-2.8.8-.8,1.8-1.4,2.9-1.9,1.1-.4,2.4-.7,3.7-.7s2.6.2,3.7.7c1.1.5,2.1,1.1,2.9,2l-1.6,1.6c-.7-.7-1.4-1.2-2.2-1.6-.8-.3-1.7-.5-2.7-.5s-1.9.2-2.7.5c-.8.3-1.6.8-2.2,1.4-.6.6-1.1,1.3-1.4,2.1s-.5,1.7-.5,2.7.2,1.9.5,2.7.8,1.5,1.4,2.1c.6.6,1.3,1.1,2.2,1.4s1.8.5,2.7.5,1.8-.2,2.7-.5c.8-.3,1.6-.9,2.2-1.6l1.6,1.6c-.8.9-1.8,1.6-2.9,2-1.1.5-2.4.7-3.8.7Z"/><path class="cls-1" d="M268.4,156.9c-1.3,0-2.6-.2-3.7-.7-1.1-.4-2.1-1.1-2.9-1.9-.8-.8-1.5-1.8-1.9-2.8s-.7-2.3-.7-3.6.2-2.5.7-3.6c.5-1.1,1.1-2,2-2.8.8-.8,1.8-1.4,2.9-1.9,1.1-.4,2.4-.7,3.7-.7s2.6.2,3.7.7c1.1.5,2.1,1.1,2.9,2l-1.6,1.6c-.7-.7-1.4-1.2-2.2-1.6-.8-.3-1.7-.5-2.7-.5s-1.9.2-2.7.5c-.8.3-1.6.8-2.2,1.4-.6.6-1.1,1.3-1.4,2.1s-.5,1.7-.5,2.7.2,1.9.5,2.7.8,1.5,1.4,2.1c.6.6,1.3,1.1,2.2,1.4s1.8.5,2.7.5,1.8-.2,2.7-.5c.8-.3,1.6-.9,2.2-1.6l1.6,1.6c-.8.9-1.8,1.6-2.9,2-1.1.5-2.4.7-3.8.7Z"/><path class="cls-1" d="M285.5,154.5h10.2v2.2h-12.7v-17.5h12.4v2.2h-9.9v13.2ZM285.3,146.7h9v2.1h-9v-2.1Z"/><path class="cls-1" d="M304.1,156.7v-17.5h2.5v13.5l10.3-13.5h2.3v17.5h-2.4v-13.5l-10.4,13.5h-2.3ZM311.6,138c-1.4,0-2.4-.3-3.2-.9-.7-.6-1.1-1.4-1.1-2.5h1.8c0,.6.2,1.2.7,1.5.5.4,1.1.5,1.8.5s1.4-.2,1.8-.5c.5-.4.7-.9.7-1.5h1.8c0,1.1-.4,1.9-1.1,2.5-.7.6-1.8.9-3.1.9Z"/><path class="cls-1" d="M331.6,156.7h-2.5v-17.5h2.5v17.5ZM341.9,148.9h-10.5v-2.2h10.5v2.2ZM341.6,139.2h2.5v17.5h-2.5v-17.5Z"/><path class="cls-1" d="M361.7,145.3c2.1,0,3.7.5,4.8,1.4,1.1.9,1.7,2.3,1.7,4.1s-.6,3.4-1.8,4.4c-1.2,1-2.9,1.5-5.1,1.5h-7.2v-17.5h2.5v6.1h5.2ZM361.2,154.7c1.5,0,2.6-.3,3.3-1,.8-.6,1.2-1.6,1.2-2.9s-.4-2.1-1.1-2.7-1.9-.9-3.4-.9h-4.6v7.4h4.6ZM370.9,156.7v-17.5h2.5v17.5h-2.5Z"/><path class="cls-1" d="M399,156.9c-1.2,0-2.2-.2-3.2-.6-.9-.4-1.6-.9-2.2-1.6-.5-.7-.8-1.5-.8-2.4s.2-1.5.5-2.1c.3-.6.9-1.3,1.7-1.9.8-.6,1.8-1.2,3-1.9,1-.5,1.8-1,2.4-1.4.6-.4,1-.8,1.2-1.1.2-.4.4-.7.4-1.2s-.2-1-.6-1.4c-.4-.4-1-.5-1.7-.5s-1.4.2-1.8.6-.7.9-.7,1.5,0,.6.2.9.3.6.6,1c.3.4.7.8,1.3,1.4l9.2,9.2-1.4,1.6-9.8-9.8c-.6-.6-1-1.1-1.4-1.6-.3-.5-.6-.9-.7-1.3-.2-.4-.2-.9-.2-1.3,0-.8.2-1.5.6-2.1.4-.6.9-1,1.7-1.4.7-.3,1.5-.5,2.5-.5s1.7.1,2.3.4c.7.3,1.2.7,1.5,1.2s.5,1.2.5,2-.2,1.3-.5,1.9c-.3.6-.8,1.1-1.6,1.6-.7.5-1.7,1.1-2.9,1.7-1,.5-1.8,1-2.4,1.4-.6.4-1,.9-1.2,1.3-.2.4-.4.9-.4,1.4s.2,1,.5,1.5c.3.4.8.8,1.4,1,.6.2,1.3.4,2.1.4,1.1,0,2.1-.2,3-.7.9-.5,1.7-1.2,2.3-2.2.6-1,1.1-2.2,1.3-3.6l1.9.6c-.3,1.7-.9,3.1-1.7,4.3s-1.8,2.1-3,2.7c-1.2.6-2.5.9-4,.9Z"/><path class="cls-1" d="M432.3,156.9c-1.3,0-2.6-.2-3.8-.6-1.2-.4-2.2-.9-2.9-1.6l.9-2c.7.6,1.5,1.1,2.5,1.5,1,.4,2.1.6,3.2.6s1.8-.1,2.5-.4c.6-.2,1.1-.6,1.4-1,.3-.4.5-.9.5-1.4s-.2-1.1-.6-1.5c-.4-.4-.9-.7-1.5-.9s-1.3-.4-2.1-.6-1.5-.4-2.3-.6c-.8-.2-1.5-.5-2.1-.9s-1.1-.8-1.5-1.4c-.4-.6-.6-1.4-.6-2.3s.2-1.7.7-2.5c.5-.8,1.2-1.4,2.2-1.8,1-.5,2.3-.7,3.8-.7s2,.1,3,.4,1.9.6,2.6,1.1l-.8,2c-.8-.5-1.5-.9-2.4-1.1-.8-.2-1.6-.3-2.4-.3s-1.8.1-2.4.4c-.6.2-1.1.6-1.4,1-.3.4-.4.9-.4,1.4s.2,1.1.6,1.5c.4.4.9.7,1.5.9.6.2,1.3.4,2.1.6.8.2,1.5.4,2.3.6.8.2,1.4.5,2.1.9.6.3,1.1.8,1.5,1.4s.6,1.3.6,2.2-.2,1.7-.7,2.5c-.5.8-1.2,1.4-2.2,1.8-1,.5-2.3.7-3.8.7Z"/><path class="cls-1" d="M447.1,156.7v-17.5h6.8c1.5,0,2.8.2,3.9.7,1.1.5,1.9,1.2,2.5,2.1.6.9.9,2,.9,3.3s-.3,2.4-.9,3.3c-.6.9-1.4,1.6-2.5,2.1-1.1.5-2.4.7-3.9.7h-5.5l1.1-1.2v6.5h-2.5ZM449.6,150.5l-1.1-1.2h5.4c1.6,0,2.8-.3,3.6-1,.8-.7,1.2-1.6,1.2-2.9s-.4-2.2-1.2-2.9-2-1-3.6-1h-5.4l1.1-1.2v10.4Z"/><path class="cls-1" d="M465.9,156.7l7.9-17.5h2.5l8,17.5h-2.6l-7.1-16.1h1l-7.1,16.1h-2.6ZM469.2,152.3l.7-2h9.8l.7,2h-11.2Z"/></svg>